<?xml version="1.0" encoding="utf-8"?>
<!-- Generator: Adobe Illustrator 24.0.1, SVG Export Plug-In . SVG Version: 6.00 Build 0)  -->
<svg version="1.1"
	 id="Layer_1" xmlns:cc="http://creativecommons.org/ns#" xmlns:dc="http://purl.org/dc/elements/1.1/" xmlns:rdf="http://www.w3.org/1999/02/22-rdf-syntax-ns#"
	 xmlns="http://www.w3.org/2000/svg" xmlns:xlink="http://www.w3.org/1999/xlink" x="0px" y="0px" viewBox="0 0 26 26"
	 style="enable-background:new 0 0 26 26;" xml:space="preserve">
<style type="text/css">
	.st0{stroke:#000000;}
	.st1{stroke:#000000;stroke-width:0.5;stroke-miterlimit:10;}
	.st2{fill:none;stroke:#FFFFFF;stroke-width:0.5;stroke-miterlimit:10;}
	.st3{stroke:#1D1D1B;stroke-width:0.5;stroke-miterlimit:10;}
	.st4{fill:none;stroke:#FFFFFF;stroke-width:0.5;}
	.st5{fill:#666666;}
	.st6{fill:#FFFFFF;}
</style>
<path class="st0" d="M6,21.5C8,16,9,10,9,2.5h8c0,7.5,1,13.5,3,19H6z"/>
<path class="st1" d="M8.5,21c0,1.4-1.1,2.5-2.5,2.5S3.5,22.4,3.5,21s1.1-2.5,2.5-2.5S8.5,19.6,8.5,21z"/>
<path class="st2" d="M6.8,18.6c1,0.3,1.7,1.3,1.7,2.4c0,0.2,0,0.3-0.1,0.5"/>
<path class="st3" d="M20,18.5c1.4,0,2.5,1.1,2.5,2.5s-1.1,2.5-2.5,2.5s-2.5-1.1-2.5-2.5S18.6,18.5,20,18.5z"/>
<path class="st2" d="M17.6,21.5c0-0.2-0.1-0.3-0.1-0.5c0-1.1,0.7-2,1.7-2.4"/>
<path class="st4" d="M6.5,18.6h13"/>
<path class="st5" d="M7,21c0,0.6-0.4,1-1,1s-1-0.4-1-1s0.4-1,1-1S7,20.4,7,21z"/>
<path class="st5" d="M21,21c0,0.6-0.4,1-1,1s-1-0.4-1-1s0.4-1,1-1S21,20.4,21,21z"/>
<path class="st6" d="M14.5,5.5C14.5,6.3,13.8,7,13,7s-1.5-0.7-1.5-1.5S12.2,4,13,4S14.5,4.7,14.5,5.5z"/>
</svg>
