<?xml version="1.0" encoding="UTF-8"?><svg id="Layer_2" xmlns="http://www.w3.org/2000/svg" viewBox="0 0 53.84 52.47"><defs><style>.cls-1{fill:#fff;}</style></defs><g id="Layer_1-2"><path class="cls-1" d="M0,5.47C.43,2.69,2.5.44,5.32.02l38.9-.02c2.92.29,5.32,2.68,5.52,5.63.49,7.08-.38,14.74,0,21.88l-.22,1.21s-.35-.2-.42-.26c-1.46-1.19-3.81-3.92-5.5-4.38-.99-.27-1.72-.16-2.69.07l-7.57-7.69,14.03-11.18-22.5,12.09L2.52,5.37l13.98,10.99-11.56,11.93,14.25-10.06,5.68,3.64,5.76-3.66,9.22,6.66c-1.71,1.36-1.51,3.34-1.47,5.31-2.71.32-5.35,1.31-7.57,2.89l-24.87.06c-3-.11-5.62-2.6-5.94-5.58V5.47Z"/><path class="cls-1" d="M53.84,37.02v.42l-1.05,1.21c-3.21,2.58-6.12,5.79-9.31,8.35-.47.38-.93.77-1.56.41-.1-.06-.38-.38-.38-.46v-5.52c-2.66.11-5.5-.02-8.05.84-4.44,1.49-6.31,6.01-7.41,10.2-.18.02-.1-.24-.1-.37-.18-4.56,1.23-10.84,4.26-14.36s6.96-4.69,11.3-4.73v-5.42c0-.38,1.15-.84,1.47-.42,3.23,3.11,7.01,5.91,10.21,9.04.26.26.43.49.63.79Z"/></g></svg>