<svg xmlns="http://www.w3.org/2000/svg">
    <g>
        <rect x="0" y="0" width="60" height="60" style="fill: #f0d9b5" rx="0" ry="0"></rect>
        <rect x="60" y="0" width="60" height="60" style="fill: #b58863" rx="0" ry="0"></rect>
        <rect x="120" y="0" width="60" height="60" style="fill: #f0d9b5" rx="0" ry="0"></rect>
        <rect x="180" y="0" width="60" height="60" style="fill: #b58863" rx="0" ry="0"></rect>
        <rect x="240" y="0" width="60" height="60" style="fill: #f0d9b5" rx="0" ry="0"></rect>
        <rect x="300" y="0" width="60" height="60" style="fill: #b58863" rx="0" ry="0"></rect>
        <rect x="360" y="0" width="60" height="60" style="fill: #f0d9b5" rx="0" ry="0"></rect>
        <rect x="0" y="60" width="60" height="60" style="fill: #b58863" rx="0" ry="0"></rect>
        <rect x="60" y="60" width="60" height="60" style="fill: #f0d9b5" rx="0" ry="0"></rect>
        <rect x="120" y="60" width="60" height="60" style="fill: #b58863" rx="0" ry="0"></rect>
        <rect x="180" y="60" width="60" height="60" style="fill: #f0d9b5" rx="0" ry="0"></rect>
        <rect x="240" y="60" width="60" height="60" style="fill: #b58863" rx="0" ry="0"></rect>
        <rect x="300" y="60" width="60" height="60" style="fill: #f0d9b5" rx="0" ry="0"></rect>
        <rect x="360" y="60" width="60" height="60" style="fill: #b58863" rx="0" ry="0"></rect>
        <rect x="0" y="120" width="60" height="60" style="fill: #f0d9b5" rx="0" ry="0"></rect>
        <rect x="60" y="120" width="60" height="60" style="fill: #b58863" rx="0" ry="0"></rect>
        <rect x="120" y="120" width="60" height="60" style="fill: #f0d9b5" rx="0" ry="0"></rect>
        <rect x="180" y="120" width="60" height="60" style="fill: #b58863" rx="0" ry="0"></rect>
        <rect x="240" y="120" width="60" height="60" style="fill: #f0d9b5" rx="0" ry="0"></rect>
        <rect x="300" y="120" width="60" height="60" style="fill: #b58863" rx="0" ry="0"></rect>
        <rect x="360" y="120" width="60" height="60" style="fill: #f0d9b5" rx="0" ry="0"></rect>
        <rect x="0" y="180" width="60" height="60" style="fill: #b58863" rx="0" ry="0"></rect>
        <rect x="60" y="180" width="60" height="60" style="fill: #f0d9b5" rx="0" ry="0"></rect>
        <rect x="120" y="180" width="60" height="60" style="fill: #b58863" rx="0" ry="0"></rect>
        <rect x="180" y="180" width="60" height="60" style="fill: #f0d9b5" rx="0" ry="0"></rect>
        <rect x="240" y="180" width="60" height="60" style="fill: #b58863" rx="0" ry="0"></rect>
        <rect x="300" y="180" width="60" height="60" style="fill: #f0d9b5" rx="0" ry="0"></rect>
        <rect x="360" y="180" width="60" height="60" style="fill: #b58863" rx="0" ry="0"></rect>
        <rect x="0" y="240" width="60" height="60" style="fill: #f0d9b5" rx="0" ry="0"></rect>
        <rect x="60" y="240" width="60" height="60" style="fill: #b58863" rx="0" ry="0"></rect>
        <rect x="120" y="240" width="60" height="60" style="fill: #f0d9b5" rx="0" ry="0"></rect>
        <rect x="180" y="240" width="60" height="60" style="fill: #b58863" rx="0" ry="0"></rect>
        <rect x="240" y="240" width="60" height="60" style="fill: #f0d9b5" rx="0" ry="0"></rect>
        <rect x="300" y="240" width="60" height="60" style="fill: #b58863" rx="0" ry="0"></rect>
        <rect x="360" y="240" width="60" height="60" style="fill: #f0d9b5" rx="0" ry="0"></rect>
        <rect x="0" y="300" width="60" height="60" style="fill: #b58863" rx="0" ry="0"></rect>
        <rect x="60" y="300" width="60" height="60" style="fill: #f0d9b5" rx="0" ry="0"></rect>
        <rect x="120" y="300" width="60" height="60" style="fill: #b58863" rx="0" ry="0"></rect>
        <rect x="180" y="300" width="60" height="60" style="fill: #f0d9b5" rx="0" ry="0"></rect>
        <rect x="240" y="300" width="60" height="60" style="fill: #b58863" rx="0" ry="0"></rect>
        <rect x="300" y="300" width="60" height="60" style="fill: #f0d9b5" rx="0" ry="0"></rect>
        <rect x="360" y="300" width="60" height="60" style="fill: #b58863" rx="0" ry="0"></rect>
    </g>
</svg>