<svg viewBox="0 0 55 55" xmlns="http://www.w3.org/2000/svg">
<rect rx="10" id="svg_3" height="55" width="55" y="0" x="0" opacity="undefined" fill="#ffffff"/>
<path id="svg_1" d="m41.45513,3.00793c-3.53,0.418 -6.452,0.902 -9.286,2.984c-24.136,-1.698 -30.362,15.049 -28.99,25.88c2.813,20.85 31.238,26.421 40.649,12.336c-7.444,7.696 -19.276,8.752 -28.323,3.084c-9.047,-5.668 -13.512,-17.392 -8.323,-27.217c5.19,-9.825 14.313,-13.032 24.347,-11.162c2.43,-1.418 5.225,-3.22 7.655,-3.187l-1.694,4.86l12.752,21.37c-0.439,5.654 -5.459,6.112 -5.459,6.112c-0.574,-1.47 -1.634,-2.942 -4.842,-6.036c-3.207,-3.094 -17.465,-10.177 -15.788,-16.207c-2.001,6.967 10.311,14.152 14.04,17.663c3.73,3.51 5.426,6.04 5.795,6.756c0,0 9.392,-2.504 7.838,-8.927l-11.927,-21.638l1.556,-6.671z" stroke-linejoin="round" stroke="#000000" fill="#000000"/>
</svg>
