<?xml version="1.0" encoding="UTF-8" standalone="no"?>
<svg
   xmlns:dc="http://purl.org/dc/elements/1.1/"
   xmlns:cc="http://creativecommons.org/ns#"
   xmlns:rdf="http://www.w3.org/1999/02/22-rdf-syntax-ns#"
   xmlns:svg="http://www.w3.org/2000/svg"
   xmlns="http://www.w3.org/2000/svg"
   xmlns:sodipodi="http://sodipodi.sourceforge.net/DTD/sodipodi-0.dtd"
   xmlns:inkscape="http://www.inkscape.org/namespaces/inkscape"
   version="1.1"
   id="svg2"
   xml:space="preserve"
   width="378.66666"
   height="378.66666"
   viewBox="0 0 378.66666 378.66666"
   sodipodi:docname="steam-seeklogo.com.eps"><metadata
     id="metadata8"><rdf:RDF><cc:Work
         rdf:about=""><dc:format>image/svg+xml</dc:format><dc:type
           rdf:resource="http://purl.org/dc/dcmitype/StillImage" /></cc:Work></rdf:RDF></metadata><defs
     id="defs6"><clipPath
       clipPathUnits="userSpaceOnUse"
       id="clipPath20"><path
         d="m 1417.36,2834.61 c 782.75,0 1417.28,-634.54 1417.28,-1417.29 C 2834.64,634.574 2200.11,0.0351563 1417.36,0.0351563 634.609,0.0351563 0.0664063,634.574 0.0664063,1417.32 0.0664063,2200.07 634.609,2834.61 1417.36,2834.61 Z"
         clip-rule="evenodd"
         id="path18" /></clipPath><linearGradient
       x1="141.73599"
       y1="0.0034"
       x2="141.73599"
       y2="283.461"
       gradientUnits="userSpaceOnUse"
       gradientTransform="scale(10)"
       spreadMethod="pad"
       id="linearGradient32"><stop
         style="stop-opacity:1;stop-color:#1886b8"
         offset="0"
         id="stop22" /><stop
         style="stop-opacity:1;stop-color:#154e82"
         offset="0.25"
         id="stop24" /><stop
         style="stop-opacity:1;stop-color:#112659"
         offset="0.5"
         id="stop26" /><stop
         style="stop-opacity:1;stop-color:#03173c"
         offset="0.75"
         id="stop28" /><stop
         style="stop-opacity:1;stop-color:#111b2e"
         offset="1"
         id="stop30" /></linearGradient></defs><sodipodi:namedview
     pagecolor="#ffffff"
     bordercolor="#666666"
     borderopacity="1"
     objecttolerance="10"
     gridtolerance="10"
     guidetolerance="10"
     inkscape:pageopacity="0"
     inkscape:pageshadow="2"
     inkscape:window-width="640"
     inkscape:window-height="480"
     id="namedview4" /><g
     id="g10"
     inkscape:groupmode="layer"
     inkscape:label="ink_ext_XXXXXX"
     transform="matrix(1.3333333,0,0,-1.3333333,0,378.66667)"><g
       id="g12"
       transform="scale(0.1)"><g
         id="g14"><g
           id="g16"
           clip-path="url(#clipPath20)"><path
             d="m 1417.36,2834.61 c 782.75,0 1417.28,-634.54 1417.28,-1417.29 C 2834.64,634.574 2200.11,0.0351563 1417.36,0.0351563 634.609,0.0351563 0.0664063,634.574 0.0664063,1417.32 0.0664063,2200.07 634.609,2834.61 1417.36,2834.61"
             style="fill:url(#linearGradient32);fill-opacity:1;fill-rule:nonzero;stroke:none"
             id="path34" /></g></g><path
         d="m 984.961,1286.83 c 9.254,0 18.429,-0.34 27.519,-0.94 l 335.83,492.1 v 0 c 0,298.47 241.96,540.44 540.44,540.44 298.46,0 540.43,-241.97 540.43,-540.44 0,-298.47 -241.97,-540.43 -540.43,-540.43 -4.16,0 -8.3,0.07 -12.43,0.16 l -479.36,-340.865 -0.01,0.024 c 0.4,-7.508 0.63,-15.059 0.63,-22.668 0,-227.887 -184.73,-412.613 -412.619,-412.613 -202.68,0 -371.211,146.121 -406.02,338.761 L 57.8516,1015.19 C 10.0391,1178.02 -9.20313,1347.61 4.13281,1526.37 L 748.105,1212.09 c 67.036,47.08 148.711,74.74 236.856,74.74 z m 905.399,765.88 c 150.83,0 273.1,-122.27 273.1,-273.1 0,-150.83 -122.27,-273.1 -273.1,-273.1 -150.83,0 -273.1,122.27 -273.1,273.1 0,150.83 122.27,273.1 273.1,273.1 z m 0,84.45 c 197.47,0 357.55,-160.08 357.55,-357.55 0,-197.47 -160.08,-357.56 -357.55,-357.56 -197.48,0 -357.56,160.09 -357.56,357.56 0,197.47 160.08,357.55 357.56,357.55 z M 984.961,1178.07 c 167.819,0 303.849,-136.04 303.849,-303.855 0,-167.817 -136.03,-303.852 -303.849,-303.852 -122.316,0 -227.731,72.278 -275.914,176.453 70.281,-28.929 194.691,-92.921 266.473,-92.921 124.25,0 224.98,100.734 224.98,224.988 0,189.697 -185.34,220.407 -324.32,279.107 33.777,12.96 70.449,20.08 108.781,20.08"
         style="fill:#fefefe;fill-opacity:1;fill-rule:evenodd;stroke:none"
         id="path36" /></g></g></svg>
